<?xml version="1.0" standalone="no"?>
<!DOCTYPE svg PUBLIC "-//W3C//DTD SVG 20010904//EN"
 "http://www.w3.org/TR/2001/REC-SVG-20010904/DTD/svg10.dtd">
<svg version="1.0" xmlns="http://www.w3.org/2000/svg"
 width="132.000000pt" height="132.000000pt" viewBox="0 0 132.000000 132.000000"
 preserveAspectRatio="xMidYMid meet">
<metadata>
Created by potrace 1.14, written by Peter Selinger 2001-2017
</metadata>
<g transform="translate(0.000000,132.000000) scale(0.100000,-0.100000)"
fill="#000000" stroke="none">
<path d="M535 1286 c-33 -8 -80 -22 -105 -32 -50 -19 -174 -96 -185 -114 -4
-7 12 -31 41 -61 l48 -49 211 0 210 0 115 -90 c63 -50 120 -99 126 -111 16
-28 7 -54 -21 -69 -22 -12 -31 -7 -116 54 l-92 66 -173 0 c-164 0 -173 -1
-179 -20 -3 -11 -3 -24 0 -30 4 -6 52 -10 113 -10 81 0 113 -4 130 -16 27 -19
28 -48 2 -74 -18 -18 -33 -20 -178 -20 -156 0 -159 0 -203 28 -24 16 -79 62
-122 104 l-77 75 -15 -51 c-45 -149 -41 -292 11 -424 72 -179 220 -318 399
-375 94 -30 282 -31 365 -3 73 24 176 80 220 116 l34 30 -53 54 -52 53 -192
-5 c-114 -2 -202 0 -217 6 -34 13 -227 168 -247 198 -14 22 -14 26 1 49 9 14
25 25 35 25 11 0 56 -27 101 -60 l81 -61 167 -6 c137 -4 170 -3 186 9 47 36
-14 58 -164 58 -70 0 -90 10 -90 45 0 49 24 55 202 55 l165 0 44 -31 c24 -17
76 -63 115 -101 l71 -69 19 63 c28 94 26 270 -3 363 -61 193 -217 350 -407
411 -100 32 -234 40 -321 20z"/>
</g>
</svg>
